<?xml version="1.0" standalone="no"?>
<!DOCTYPE svg PUBLIC "-//W3C//DTD SVG 20010904//EN"
 "http://www.w3.org/TR/2001/REC-SVG-20010904/DTD/svg10.dtd">
<svg version="1.0" xmlns="http://www.w3.org/2000/svg"
 width="512.000000pt" height="512.000000pt" viewBox="0 0 512.000000 512.000000"
 preserveAspectRatio="xMidYMid meet">
<metadata>
Created by potrace 1.15, written by Peter Selinger 2001-2017
</metadata>
<g transform="translate(0.000000,512.000000) scale(0.100000,-0.100000)"
fill="#000000" stroke="none">
<path d="M40 4341 l0 -138 1250 -1187 c688 -653 1257 -1189 1265 -1192 8 -4
421 381 1097 1023 596 566 1089 1033 1096 1037 9 6 12 -311 12 -1458 l0 -1466
-2200 0 -2200 0 0 1080 0 1080 -160 0 -160 0 0 -1240 0 -1240 2520 0 2520 0 0
1920 0 1920 -2520 0 -2520 0 0 -139z m3518 -1123 c-545 -519 -994 -943 -998
-943 -4 0 -453 424 -998 943 l-992 942 1990 0 1990 0 -992 -942z"/>
</g>
</svg>
