
<svg version="1.0" xmlns="http://www.w3.org/2000/svg"
 width="22" height="22" viewBox="0 0 512.000000 512.000000"
 preserveAspectRatio="xMidYMid meet">
  <g transform="translate(0.000000,512.000000) scale(0.100000,-0.100000)"
  fill="#000000" stroke="none">
    <path d="M2890 4140 c-276 -27 -477 -172 -567 -408 -43 -115 -52 -195 -53
    -474 l0 -258 -240 0 -240 0 0 -285 0 -285 240 0 240 0 0 -715 0 -715 290 0
    290 0 0 715 0 715 240 0 240 0 4 23 c7 28 66 509 66 531 0 14 -29 16 -276 16
    l-276 0 4 223 c5 248 12 282 74 336 50 45 91 53 302 58 l192 5 0 253 0 253
    -112 6 c-229 11 -345 13 -418 6z"/>
  </g>
</svg>
