<svg xmlns="http://www.w3.org/2000/svg" width="26" height="26" viewBox="0 0 26 26">
    <path d="M16.049,16.417c0,0-1.379-0.31-0.725-1.679c0.805-1.078,1.297-2.301,1.336-2.701 c0,0,1.241-0.973,1.313-2.434c0.078-1.457-0.271-1.525-0.271-1.525c0.521-1.589,0.69-7.553-3.154-6.841 c-0.642-1.251-4.66-2.232-6.533,1.101C7.08,4,6.732,6.269,7.461,8.12C7.434,8.258,7.203,7.985,7.119,8.841 c-0.081,0.825,0.292,2.008,0.698,2.556c0.176,0.231,0.458,0.4,0.657,0.486c0,0,0.243,1.47,1.396,2.855 c0.265,1.099-0.831,1.679-0.831,1.679c-3.629,0.695-6.965,2.701-6.965,4.871c0,0.16,0,1.681,0,1.681 c0,2.355,5.51,2.86,10.468,2.86c4.959,0,10.432-1.419,10.432-2.86c0,0,0-1.521,0-1.681C22.973,19.118,19.676,17.112,16.049,16.417 z M10.969,24.808c0-2.808,1.236-4.745,1.236-4.745l-1.268-0.703c0-0.609,1.586-1.313,1.586-1.313s1.519,0.672,1.519,1.313 l-1.201,0.703c0,0,1.206,1.938,1.206,4.771C14.047,25.226,10.969,25.135,10.969,24.808z"/>
</svg>