<?xml version="1.0" standalone="no"?>
<!DOCTYPE svg PUBLIC "-//W3C//DTD SVG 20010904//EN"
 "http://www.w3.org/TR/2001/REC-SVG-20010904/DTD/svg10.dtd">
<svg version="1.0" xmlns="http://www.w3.org/2000/svg"
 width="512.000000pt" height="512.000000pt" viewBox="0 0 512.000000 512.000000"
 preserveAspectRatio="xMidYMid meet">
<metadata>
Created by potrace 1.15, written by Peter Selinger 2001-2017
</metadata>
<g transform="translate(0.000000,512.000000) scale(0.100000,-0.100000)"
fill="#000000" stroke="none">
<path d="M1490 5030 c-234 -13 -425 -64 -620 -167 -440 -231 -699 -576 -764
-1016 -23 -154 -24 -2474 -1 -2615 39 -239 144 -454 321 -656 204 -233 460
-389 757 -461 192 -47 276 -50 1437 -49 1063 1 1087 1 1202 22 226 41 451 132
633 256 109 74 291 253 362 356 107 157 186 348 219 532 15 84 17 208 15 1323
-2 1351 -1 1323 -63 1510 -137 412 -522 773 -960 899 -186 54 -232 58 -738 66
-575 10 -1614 10 -1800 0z m2270 -393 c47 -8 118 -24 158 -36 307 -92 571
-327 691 -615 61 -147 60 -123 64 -1355 3 -618 1 -1170 -4 -1227 -29 -371
-229 -653 -591 -835 -98 -49 -207 -86 -317 -107 -77 -15 -203 -16 -1176 -15
-945 0 -1104 3 -1193 17 -256 39 -451 135 -618 301 -127 128 -209 251 -258
393 -52 147 -51 120 -49 1402 2 1312 -1 1253 63 1418 68 177 223 367 388 476
156 103 373 179 560 196 53 5 570 7 1147 5 849 -3 1066 -7 1135 -18z"/>
<path d="M3775 4121 c-46 -21 -98 -69 -123 -115 -12 -23 -17 -55 -17 -121 0
-100 11 -129 67 -185 47 -47 103 -70 173 -70 145 0 245 104 245 255 0 151
-100 255 -245 255 -37 0 -76 -8 -100 -19z"/>
<path d="M2405 3784 c-307 -48 -590 -217 -775 -463 -71 -93 -155 -268 -187
-386 -25 -92 -27 -116 -27 -290 -1 -208 9 -264 74 -435 84 -217 266 -429 478
-558 78 -48 226 -108 322 -132 121 -31 361 -38 489 -16 247 43 466 160 641
343 218 226 320 479 320 793 0 261 -71 479 -221 680 -132 176 -282 294 -482
380 -152 65 -237 81 -432 85 -93 2 -183 1 -200 -1z m360 -395 c44 -10 123 -40
175 -66 79 -39 111 -63 186 -138 158 -157 224 -302 232 -510 8 -241 -68 -428
-241 -591 -155 -146 -326 -214 -542 -214 -156 0 -281 34 -413 111 -80 48 -220
189 -270 274 -164 281 -132 635 79 881 197 228 497 324 794 253z"/>
</g>
</svg>
