<?xml version="1.0" standalone="no"?>
<!DOCTYPE svg PUBLIC "-//W3C//DTD SVG 20010904//EN"
 "http://www.w3.org/TR/2001/REC-SVG-20010904/DTD/svg10.dtd">
<svg version="1.0" xmlns="http://www.w3.org/2000/svg"
 width="512.000000pt" height="512.000000pt" viewBox="0 0 512.000000 512.000000"
 preserveAspectRatio="xMidYMid meet">
<metadata>
Created by potrace 1.15, written by Peter Selinger 2001-2017
</metadata>
<g transform="translate(0.000000,512.000000) scale(0.100000,-0.100000)"
fill="#000000" stroke="none">
<path d="M1240 5106 c-591 -87 -1051 -519 -1177 -1106 -25 -117 -25 -450 -1
-558 28 -121 68 -236 117 -335 l46 -94 -11 -70 c-176 -1049 340 -2077 1283
-2556 220 -112 441 -185 688 -229 165 -29 528 -36 704 -14 l132 17 107 -45
c821 -346 1736 125 1927 994 10 44 19 144 22 241 8 231 -19 383 -103 586 l-34
83 14 72 c44 231 47 613 7 843 -187 1084 -1070 1899 -2162 1996 -146 13 -375
8 -530 -12 -94 -12 -96 -11 -135 13 -102 64 -287 133 -437 164 -106 21 -343
26 -457 10z m1536 -897 c230 -22 390 -65 569 -154 302 -149 497 -414 483 -654
-10 -175 -157 -311 -337 -311 -149 0 -217 48 -331 231 -161 260 -245 329 -444
364 -391 67 -756 -86 -758 -318 0 -30 5 -70 11 -89 26 -77 165 -175 321 -226
36 -12 196 -53 355 -92 502 -121 676 -177 864 -276 124 -66 202 -124 273 -205
146 -165 206 -349 195 -598 -13 -307 -156 -558 -422 -741 -61 -42 -225 -123
-304 -149 -190 -65 -431 -101 -667 -101 -410 0 -713 77 -972 247 -75 49 -237
212 -287 288 -172 262 -193 514 -53 640 95 87 233 117 353 79 96 -30 161 -99
241 -257 122 -241 184 -317 312 -385 107 -57 196 -75 372 -75 264 -1 422 48
562 173 68 61 105 131 114 216 16 154 -55 270 -216 354 -93 48 -208 81 -540
159 -590 136 -816 233 -1016 437 -93 95 -152 197 -186 321 -28 106 -30 307 -4
408 91 345 386 582 846 679 188 40 469 55 666 35z"/>
</g>
</svg>
